<svg id="Livello_1" data-name="Livello 1" xmlns="http://www.w3.org/2000/svg" viewBox="0 0 584.4 137.21"><defs><style>.cls-1{fill:#2c3690;stroke:#2c3690;stroke-miterlimit:10;stroke-width:3px;}</style></defs><title>LogoXbeatLinear</title><path class="cls-1" d="M475.51,134.11H358.11c.64-1.68,1.11-3.06,1.7-4.4Q386.66,68.54,413.6,7.41c.7-1.57,2.22-2.78,3.36-4.16,1,1.33,2.34,2.53,3,4Q447,68.59,474,130C474.49,131.18,474.89,132.43,475.51,134.11Zm-5.5-3.46c-17.79-40.42-35.29-80.2-53.2-120.93L363.65,130.65Z"/><path class="cls-1" d="M194.67,67.68c3.3,1.53,7.51,3,11.2,5.27,21,13.13,20.95,41.18-.52,53.63a42.93,42.93,0,0,1-18.94,5.67c-17.89.76-35.84.26-53.76.27-2.11,0-4.46.31-3.87-3.56h4.77c16.88,0,33.75,0,50.63-.15a36.42,36.42,0,0,0,21.39-6.75c16.27-11.58,16.18-33.54-.24-44.91a36.12,36.12,0,0,0-21-6.5q-27.54,0-55.05,0c-1.44-3.28.27-3.59,2.75-3.58q21.94,0,43.9-.1A37,37,0,0,0,197,60.68c16.74-11.42,16.85-34.06.19-45.55A35.07,35.07,0,0,0,177,8.79c-14.33,0-28.67,0-43,0h-4.87L128.5,7.4c1.12-.72,2.24-2.07,3.36-2.08,16.58-.13,33.2-.83,49.72.16,13.12.79,23.45,7.73,29.13,20.05,4.9,10.64,3.71,21.15-3.41,30.35C203.74,60.47,198.74,64,194.67,67.68Z"/><path class="cls-1" d="M534.86,11.91V133.69c-2.76,1.36-4,.67-3.94-2.58q.08-58.23,0-116.46C530.91,11.69,532,10.91,534.86,11.91Z"/><path class="cls-1" d="M482.94,6.69c-1.42-3.63.52-4,3.16-4,9.85,0,19.7,0,29.55,0q31.56,0,63.12,0c2.49,0,5.11-.24,3.77,4Z"/><path class="cls-1" d="M342.84,2.75c.8,2.71.72,4.17-2.31,4.17Q296,6.79,251.47,6.81a2.37,2.37,0,0,1-.55-.21c-.95-3.57,1.35-3.85,4-3.85h87.95Z"/><path class="cls-1" d="M342.9,134.31H308.67c-17.91,0-35.83,0-53.75-.07-1.52,0-3-1.05-4.56-1.61l.43-1.69c1.25-.12,2.51-.34,3.76-.34q42.33,0,84.66,0C341.28,130.6,344.18,129.84,342.9,134.31Z"/><path class="cls-1" d="M51,71.35c-1.23,2.64-1.74,4.45-2.78,5.88q-19.8,27.38-39.81,54.58c-1.11,1.5-3.46,2.09-5.48,2.62C10.22,120.42,46.41,72.47,51,71.35Z"/><path class="cls-1" d="M104.71,135c-1.78-1.12-4.11-1.85-5.27-3.43q-19.93-27-39.5-54.29c-1.08-1.49-1.42-3.52-2.32-5.88,4,1.09,37.92,46.06,47.74,62.19Z"/><path class="cls-1" d="M7.28,2.05C8.94,3.11,11.1,3.81,12.19,5.3,24.43,21.87,36.51,38.55,48.58,55.24A6.93,6.93,0,0,1,49.67,60c-1.15-.49-2.75-.64-3.38-1.5Q26.16,31.12,6.22,3.6Z"/><path class="cls-1" d="M101.75,3.68c-14,18.92-27.48,38.26-41.76,57l-2-1.17c.52-1.48.72-3.19,1.6-4.42Q77.69,29.89,96.06,4.87c1-1.35,3.23-1.81,4.88-2.69Z"/><path class="cls-1" d="M250.13,69c1.09-.78,2.18-2.23,3.27-2.24q31.74-.21,63.47,0c.91,0,1.81,1.29,2.71,2-.79.63-1.58,1.81-2.37,1.81-22,.1-44,.08-66.07.08Z"/></svg>